<?xml version="1.0" encoding="UTF-8"?>
<!-- Created with Inkscape (http://www.inkscape.org/) -->
<svg width="271.27" height="255.52" version="1.1" viewBox="0 0 271.27 255.52" xml:space="preserve" xmlns="http://www.w3.org/2000/svg" xmlns:cc="http://creativecommons.org/ns#" xmlns:dc="http://purl.org/dc/elements/1.1/" xmlns:rdf="http://www.w3.org/1999/02/22-rdf-syntax-ns#"><metadata><rdf:RDF><cc:Work rdf:about=""><dc:format>image/svg+xml</dc:format><dc:type rdf:resource="http://purl.org/dc/dcmitype/StillImage"/><dc:title/></cc:Work></rdf:RDF></metadata><defs><clipPath id="clipPath18"><path d="m0 612h792v-612h-792z"/></clipPath></defs><g transform="matrix(1.3333 0 0 -1.3333 0 815.31)"><g transform="translate(-140.11 97.773)"><g clip-path="url(#clipPath18)"><g transform="translate(292.67 415.4)"><path d="m0 0h-15.898l7.703 17.192zm3.237-21.013h23.911c-3.497 2.75-4.667 5.468-4.667 5.468l-25.387 51.728c-0.079 0.161-0.309 0.159-0.386-3e-3l-23.255-49.347c-1.423-3.156-3.689-6.045-6.578-7.846h14.179c-4.672 2.26-3.577 5.887-2.678 8.236l3.789 8.455h19.894l3.867-8.201c2-4.556 0.244-7.134-2.689-8.49m-53.16 80.751c-4.941 0-8.948-4.006-8.948-8.948s4.007-8.948 8.948-8.948c4.942 0 8.948 4.006 8.948 8.948s-4.006 8.948-8.948 8.948m-7.633-71.54c0.166-6.267-3.467-8.045-4.467-8.901h24.201c-1 0.856-4.634 2.634-4.467 8.901v39.321c0.035 5.301 3.035 7.435 4.467 8.285h-24.201c1.432-0.85 4.432-2.984 4.467-8.285zm-34.307 17.525c4.711-2.179 4.445-8.624 4.445-8.624v-5.734c0-3.534-1.639-10.802-9.607-10.901-7.967-0.1-13.368 7.967-13.835 27.57 0 11.268 3.467 26.737 15.936 26.737 10.967 0 16.702-12.602 18.702-17.303l-0.367 19.192c-1.978-1.867-3.512-2.49-5.089-2.49-1.801 0-4.037 0.692-5.779 1.303-2.183 0.764-6.8 1.178-9.001 1.165-21.136-0.134-31.271-16.003-30.848-29.849 0.511-16.224 11.639-28.159 28.981-28.159 4.801 0 12.179 0.689 18.492 7.846l7.067-7.846v18.469s-0.267 6.445 4.445 8.624zm-60.697 61.775c62.33 41.087 138.49 41.087 203.45 0v-160.83c-64.959 41.088-141.12 41.088-203.45 0z" fill="#335db4"/></g></g></g></g></svg>
